HIERARCHY
ROOT ui
{
	 OFFSET 0 0 0
	 CHANNELS 3 XPosition YPosition Z Position
	 EndSite
	 {
	 OFFSET 0 -1 0
	 }
}
ROOT li
{
	 OFFSET 0 0 0
	 CHANNELS 3 XPosition YPosition Z Position
	 EndSite
	 {
	 OFFSET 0 -1 0
	 }
}
ROOT ul
{
	 OFFSET 0 0 0
	 CHANNELS 3 XPosition YPosition Z Position
	 EndSite
	 {
	 OFFSET 0 -1 0
	 }
}
ROOT ll
{
	 OFFSET 0 0 0
	 CHANNELS 3 XPosition YPosition Z Position
	 EndSite
	 {
	 OFFSET 0 -1 0
	 }
}
ROOT tt
{
	 OFFSET 0 0 0
	 CHANNELS 3 XPosition YPosition Z Position
	 EndSite
	 {
	 OFFSET 0 -1 0
	 }
}
ROOT tb
{
	 OFFSET 0 0 0
	 CHANNELS 3 XPosition YPosition Z Position
	 EndSite
	 {
	 OFFSET 0 -1 0
	 }
}
ROOT td
{
	 OFFSET 0 0 0
	 CHANNELS 3 XPosition YPosition Z Position
	 EndSite
	 {
	 OFFSET 0 -1 0
	 }
}
ROOT v
{
	 OFFSET 0 0 0
	 CHANNELS 3 XPosition YPosition Z Position
	 EndSite
	 {
	 OFFSET 0 -1 0
	 }
}
ROOT bn
{
	 OFFSET 0 0 0
	 CHANNELS 3 XPosition YPosition Z Position
	 EndSite
	 {
	 OFFSET 0 -1 0
	 }
}
MOTION
Frames: 32
Frame Time: 0.002
0.026412986755371095	-0.0013229650259017943	0		0.46375823974609376	-2.500294921875	0		-0.9864305419921875	0.3254384765625	0		-0.6231651611328125	-2.935056396484375	0		1.6767276611328126	-1.0093505249023438	0		3.260127197265625	-0.35489495849609376	0		4.4804482421875	-0.1596910400390625	0		5.9867880859375	0.48494088745117186	0		-0.30464788818359373	5.8390146484375	0		
0.028589527130126954	0.0030828940868377684	0		0.5348458251953125	-2.49936279296875	0		-0.9172466430664062	0.32942303466796874	0		-0.5571762084960937	-2.947061279296875	0		1.6967359619140625	-1.0261092529296876	0		3.25623388671875	-0.3595358581542969	0		4.48550439453125	-0.17341543579101562	0		5.97189794921875	0.47730026245117185	0		-0.342353271484375	5.837697265625	0		
0.024760746002197267	-4.675790071487427E-4	0		0.4839200134277344	-2.508609130859375	0		-0.9321213989257813	0.3179684753417969	0		-0.6050989990234374	-2.954302490234375	0		1.749841796875	-1.0360810546875	0		3.257336181640625	-0.3721942138671875	0		4.497701171875	-0.17316831970214844	0		5.97110693359375	0.47759231567382815	0		-0.18890980529785156	5.85410009765625	0		
0.01998769950866699	-0.00300971794128418	0		0.5330511474609375	-2.518523681640625	0		-0.9328683471679687	0.31841741943359375	0		-0.5670501708984375	-2.9751220703125	0		1.70999609375	-1.0464197998046876	0		3.26746826171875	-0.38789825439453124	0		4.49694775390625	-0.17281544494628906	0		5.97036279296875	0.47791070556640625	0		-0.3076436462402344	5.84133056640625	0		
-0.03371914672851563	-0.002221190929412842	0		0.4483414001464844	-2.512533447265625	0		-1.0095698852539063	0.3193753967285156	0		-0.5718292846679688	-2.978655517578125	0		1.746231201171875	-1.052263916015625	0		3.26484228515625	-0.37450262451171873	0		4.50622607421875	-0.17451358032226563	0		5.97866162109375	0.47819219970703125	0		-0.3423046264648438	5.83599560546875	0		
0.01861023712158203	-0.002149980068206787	0		0.48658892822265626	-2.520372802734375	0		-1.0102356567382813	0.31981597900390624	0		-0.6005989379882812	-2.9880302734375	0		1.7205032958984374	-1.0586849365234374	0		3.274155029296875	-0.37617742919921876	0		4.50956982421875	-0.17215782165527344	0		5.97394384765625	0.4705819091796875	0		-0.34290878295898436	5.8364287109375	0		
-0.03099774932861328	0.002608436107635498	0		0.47698727416992187	-2.511888916015625	0		-0.9408370971679687	0.32477670288085936	0		-0.568300048828125	-2.993822021484375	0		1.7469326171875	-1.0474547119140625	0		3.283495361328125	-0.3788440246582031	0		4.5129736328125	-0.16579098510742188	0		5.96836572265625	0.478995361328125	0		-0.1743199920654297	5.86271337890625	0		
0.02138751983642578	0.0016732840538024902	0		0.526298583984375	-2.52180615234375	0		-0.9514351196289063	0.32627313232421873	0		-0.6119552001953125	-2.998103759765625	0		1.7502525634765624	-1.0570667724609375	0		3.28592724609375	-0.3724576721191406	0		4.508326171875	-0.17136148071289062	0		5.96776123046875	0.47938827514648436	0		-0.32411660766601563	5.8311484375	0		
-0.06220331192016602	6.560050249099732E-4	0		0.469732177734375	-2.518008544921875	0		-0.9610671997070312	0.3187576904296875	0		-0.5466278076171875	-3.010128662109375	0		1.7627032470703126	-1.0517412109375	0		3.2853466796875	-0.3720491943359375	0		4.51178759765625	-0.16498332214355468	0		5.96718359375	0.4797873229980469	0		-0.3246753234863281	5.83156982421875	0		
0.016237899780273436	-4.6456599235534667E-4	0		0.5050985717773437	-2.5288388671875	0		-0.95658935546875	0.32314181518554685	0		-0.5972745361328125	-3.02237255859375	0		1.743156982421875	-1.050202880859375	0		3.30072021484375	-0.3827528076171875	0		4.51628466796875	-0.15761550903320312	0		5.975634765625	0.48012246704101563	0		-0.3772261962890625	5.82933837890625	0		
-0.037276092529296874	3.03974986076355E-4	0		0.4895531921386719	-2.531330078125	0		-0.9421443481445313	0.3174528503417969	0		-0.5608095703125	-3.02321240234375	0		1.765643798828125	-1.04895703125	0		3.3153525390625	-0.36045950317382813	0		4.52665380859375	-0.17429763793945313	0		5.980060546875	0.47147360229492186	0		-0.3426848449707031	5.83451123046875	0		
0.022299844741821288	0.00729768419265747	0		0.5190814208984375	-2.529135498046875	0		-0.9435516357421875	0.32686605834960936	0		-0.5972758178710937	-3.0195634765625	0		1.76718798828125	-1.04557958984375	0		3.27885400390625	-0.36383251953125	0		4.528298828125	-0.15693418884277344	0		5.974654296875	0.48087451171875	0		-0.34410821533203123	5.83692138671875	0		
0.0148390531539917	7.369459867477417E-4	0		0.5306409912109376	-2.529829345703125	0		-0.8890113525390625	0.31989126586914063	0		-0.4978309020996094	-3.0368466796875	0		1.7748544921875	-1.0322564697265626	0		3.291457763671875	-0.36055517578125	0		4.5278857421875	-0.15657542419433593	0		5.97425146484375	0.48221908569335936	0		-0.31043560791015623	5.843083984375	0		
0.01449314785003662	0.0011162140369415283	0		0.49434469604492187	-2.518210693359375	0		-0.9633522338867188	0.3207839050292969	0		-0.5801041870117187	-3.020904052734375	0		1.7625731201171875	-1.02081396484375	0		3.311073486328125	-0.36534588623046876	0		4.5194853515625	-0.16418453979492187	0		5.96490380859375	0.4815980224609375	0		-0.325795654296875	5.8325693359375	0		
0.007174571990966797	-0.005472067832946777	0		0.5129244384765625	-2.534982421875	0		-0.9686461791992188	0.3171946411132813	0		-0.5704829711914062	-3.030600341796875	0		1.77135693359375	-1.0105346069335936	0		3.323818115234375	-0.3621138305664062	0		4.5332412109375	-0.15997052001953124	0		5.97452294921875	0.46481646728515624	0		-0.30992279052734373	5.842828125	0		
0.014030274391174316	0.0018251500129699708	0		0.45974130249023437	-2.52728271484375	0		-1.03477685546875	0.3260067138671875	0		-0.6046881103515624	-3.025013671875	0		1.785271728515625	-0.9923135986328125	0		3.304648193359375	-0.3576914672851563	0		4.533048828125	-0.15969171142578126	0		5.97345458984375	0.4820732116699219	0		-0.3440619812011719	5.8374111328125	0		
0.017939071655273437	0.005121243953704834	0		0.53562109375	-2.521489013671875	0		-0.9588841552734375	0.325828857421875	0		-0.5658580322265625	-3.02494580078125	0		1.7932095947265625	-0.98207861328125	0		3.3225908203125	-0.3485538330078125	0		4.54693701171875	-0.15954302978515625	0		5.977296875	0.47425677490234375	0		-0.344063232421875	5.8377412109375	0		
0.013884936332702637	0.0024476830959320067	0		0.4775335998535156	-2.520802490234375	0		-0.9639381103515625	0.32218359375	0		-0.5679716796875	-3.026620361328125	0		1.7952713623046874	-0.9648328247070312	0		3.329556396484375	-0.3473755187988281	0		4.54199951171875	-0.1453016052246094	0		5.9643291015625	0.482514404296875	0		-0.32500399780273437	5.83291748046875	0		
0.01392336368560791	0.0027181220054626463	0		0.5205157470703125	-2.51984033203125	0		-0.9689193115234375	0.3185127258300781	0		-0.5789454345703124	-3.017259765625	0		1.8043616943359375	-0.9536686401367187	0		3.3166279296875	-0.34109710693359374	0		4.54203759765625	-0.14513404846191405	0		5.96832421875	0.47461090087890623	0		-0.3258150634765625	5.834203125	0		
-0.04602197265625	-0.0036283268928527833	0		0.46859930419921875	-2.512256103515625	0		-0.96880908203125	0.31877664184570315	0		-0.5779111938476562	-3.015013427734375	0		1.821582763671875	-0.9325978393554688	0		3.30369287109375	-0.34485845947265625	0		4.5381259765625	-0.14698143005371095	0		5.9743759765625	0.46564651489257813	0		-0.3435349426269531	5.83757470703125	0		
0.02411858558654785	-0.005914096832275391	0		0.5175847778320313	-2.526410400390625	0		-0.9585881958007813	0.326934814453125	0		-0.630805419921875	-3.009427734375	0		1.758999267578125	-0.891012451171875	0		3.341935791015625	-0.3310180358886719	0		4.54737939453125	-0.13296455383300781	0		5.97860107421875	0.47364703369140626	0		-0.30818402099609377	5.841541015625	0		
-0.025648109436035155	-0.0014070390462875366	0		0.476882568359375	-2.5019814453125	0		-0.9543462524414063	0.3310936584472656	0		-0.5557066650390625	-3.01177490234375	0		1.8213712158203126	-0.8633406982421875	0		3.313179931640625	-0.32375680541992186	0		4.55564013671875	-0.1249875030517578	0		5.9648828125	0.4827247314453125	0		-0.3087845458984375	5.84471533203125	0		
0.014633472442626954	0.003425877094268799	0		0.5269830932617188	-2.5122333984375	0		-0.893174560546875	0.31880755615234374	0		-0.6144081420898437	-2.991231201171875	0		1.812803466796875	-0.8332200927734374	0		3.30236181640625	-0.3316662292480469	0		4.55678271484375	-0.1400079345703125	0		5.975025390625	0.46558807373046873	0		-0.3424019775390625	5.83907666015625	0		
-0.055133621215820314	-0.004015867233276367	0		0.5002177734375	-2.508993896484375	0		-0.972847412109375	0.3234630126953125	0		-0.5782316284179687	-2.99440185546875	0		1.7922783203125	-0.8030617065429687	0		3.3136884765625	-0.32477716064453127	0		4.53412060546875	-0.132906005859375	0		5.9702705078125	0.4575109252929688	0		-0.32297674560546874	5.834017578125	0		
0.01813503074645996	-0.01251681900024414	0		0.5004740600585937	-2.508993896484375	0		-0.9675394897460937	0.3194692993164063	0		-0.5969885864257812	-2.994237060546875	0		1.7908448486328126	-0.7660850830078125	0		3.318048828125	-0.31888525390625	0		4.54443408203125	-0.13508099365234374	0		5.9756669921875	0.4653205871582031	0		-0.34144866943359375	5.83917529296875	0		
0.015618511199951172	0.003465085029602051	0		0.47783004760742187	-2.501882080078125	0		-0.9571046142578125	0.3273843078613281	0		-0.564603759765625	-2.98148779296875	0		1.786536376953125	-0.71813525390625	0		3.30842529296875	-0.31693789672851563	0		4.55390380859375	-0.12129142761230469	0		5.976048828125	0.4651287536621094	0		-0.3068870544433594	5.84490380859375	0		
0.016034820556640624	0.0033729410171508788	0		0.4792060852050781	-2.499991455078125	0		-0.9566812744140625	0.3273133239746094	0		-0.6311652221679688	-2.969090087890625	0		1.7683365478515625	-0.6621319580078125	0		3.339855224609375	-0.31432269287109377	0		4.5543203125	-0.12147469329833985	0		5.9764755859375	0.46490692138671874	0		-0.17219027709960938	5.86586328125	0		
-0.026564863204956053	-0.005465248107910156	0		0.4686705017089844	-2.49406640625	0		-0.9662692260742187	0.31925579833984374	0		-0.5667106323242187	-2.96368212890625	0		1.769981689453125	-0.63531494140625	0		3.32134228515625	-0.31038876342773436	0		4.5457275390625	-0.12962646484375	0		5.9800107421875	0.47363909912109375	0		-0.3067744140625	5.845685546875	0		
0.009958905220031738	-0.003921591997146606	0		0.46222390747070313	-2.484220947265625	0		-0.970726318359375	0.32310357666015627	0		-0.5981834106445313	-2.95664599609375	0		1.7807635498046874	-0.5966068725585938	0		3.32184912109375	-0.3106260375976562	0		4.55128076171875	-0.12390975952148438	0		5.97746240234375	0.46439285278320314	0		-0.34023867797851565	5.83973388671875	0		
-0.029517602920532227	-0.008887357711791992	0		0.47170989990234374	-2.492540283203125	0		-0.9701661376953125	0.3228570861816406	0		-0.5946141357421875	-2.952916259765625	0		1.75260546875	-0.5566630859375	0		3.29549951171875	-0.297705078125	0		4.5418896484375	-0.11711561584472656	0		5.97296630859375	0.4561410217285156	0		-0.3386528015136719	5.83847607421875	0		
0.028111309051513673	-0.0065993680953979495	0		0.4513908996582031	-2.48269384765625	0		-0.9645859985351563	0.31851766967773437	0		-0.6188972778320313	-2.938041259765625	0		1.7844927978515626	-0.5181898803710937	0		3.336214599609375	-0.28329574584960937	0		4.5575341796875	-0.11252701568603515	0		5.982689453125	0.4717722473144531	0		-0.3030160217285156	5.841921875	0		
0.022860044479370116	0.005091460227966309	0		0.5011185302734374	-2.476393798828125	0		-0.8948984985351562	0.3216656494140625	0		-0.5851090698242187	-2.9236337890625	0		1.7954305419921874	-0.4806028137207031	0		3.301880126953125	-0.28337564086914063	0		4.5581962890625	-0.11285165405273437	0		5.9792919921875	0.46348797607421877	0		-0.3043697814941406	5.84458203125	0		
